<mxfile host="app.diagrams.net" modified="2024-03-26T08:37:42.346Z" agent="Mozilla/5.0 (Windows NT 10.0; Win64; x64) AppleWebKit/537.36 (KHTML, like Gecko) Chrome/122.0.0.0 Safari/537.36" etag="goDbH31nhD8baOQBm_6w" version="24.0.7" type="github">
  <diagram id="prtHgNgQTEPvFCAcTncT" name="Page-1">
    <mxGraphModel dx="1434" dy="772" grid="0" gridSize="10" guides="1" tooltips="1" connect="1" arrows="1" fold="1" page="1" pageScale="1" pageWidth="827" pageHeight="1169" math="0" shadow="0">
      <root>
        <mxCell id="0" />
        <mxCell id="1" parent="0" />
        <mxCell id="6Izva4F67837-gF0KvcY-1" value="SkyWalking-Alarm" style="swimlane;childLayout=stackLayout;resizeParent=1;resizeParentMax=0;startSize=20;html=1;" vertex="1" parent="1">
          <mxGeometry x="110" y="105" width="750" height="725" as="geometry" />
        </mxCell>
        <mxCell id="6Izva4F67837-gF0KvcY-2" value="Earth" style="swimlane;startSize=20;html=1;" vertex="1" parent="6Izva4F67837-gF0KvcY-1">
          <mxGeometry y="20" width="150" height="705" as="geometry" />
        </mxCell>
        <mxCell id="6Izva4F67837-gF0KvcY-17" value="" style="edgeStyle=orthogonalEdgeStyle;rounded=0;orthogonalLoop=1;jettySize=auto;html=1;" edge="1" parent="6Izva4F67837-gF0KvcY-2" source="6Izva4F67837-gF0KvcY-15" target="6Izva4F67837-gF0KvcY-16">
          <mxGeometry relative="1" as="geometry" />
        </mxCell>
        <mxCell id="6Izva4F67837-gF0KvcY-15" value="开始" style="ellipse;whiteSpace=wrap;html=1;" vertex="1" parent="6Izva4F67837-gF0KvcY-2">
          <mxGeometry x="15" y="35" width="120" height="80" as="geometry" />
        </mxCell>
        <mxCell id="6Izva4F67837-gF0KvcY-16" value="添加/修改规则" style="rounded=1;whiteSpace=wrap;html=1;" vertex="1" parent="6Izva4F67837-gF0KvcY-2">
          <mxGeometry x="15" y="205" width="120" height="60" as="geometry" />
        </mxCell>
        <mxCell id="6Izva4F67837-gF0KvcY-25" value="发送告警通知" style="rounded=1;whiteSpace=wrap;html=1;" vertex="1" parent="6Izva4F67837-gF0KvcY-2">
          <mxGeometry x="15" y="355" width="120" height="60" as="geometry" />
        </mxCell>
        <mxCell id="6Izva4F67837-gF0KvcY-3" value="Lmp" style="swimlane;startSize=20;html=1;" vertex="1" parent="6Izva4F67837-gF0KvcY-1">
          <mxGeometry x="150" y="20" width="150" height="705" as="geometry" />
        </mxCell>
        <mxCell id="6Izva4F67837-gF0KvcY-18" value="调用Api保存规则配置" style="rounded=1;whiteSpace=wrap;html=1;" vertex="1" parent="6Izva4F67837-gF0KvcY-3">
          <mxGeometry x="15" y="205" width="120" height="60" as="geometry" />
        </mxCell>
        <mxCell id="6Izva4F67837-gF0KvcY-20" value="Nacos" style="swimlane;startSize=20;html=1;" vertex="1" parent="6Izva4F67837-gF0KvcY-1">
          <mxGeometry x="300" y="20" width="150" height="705" as="geometry" />
        </mxCell>
        <mxCell id="6Izva4F67837-gF0KvcY-21" value="配置更新,推送配置" style="rounded=1;whiteSpace=wrap;html=1;" vertex="1" parent="6Izva4F67837-gF0KvcY-20">
          <mxGeometry x="15" y="205" width="120" height="60" as="geometry" />
        </mxCell>
        <mxCell id="6Izva4F67837-gF0KvcY-4" value="SkyWalking" style="swimlane;startSize=20;html=1;" vertex="1" parent="6Izva4F67837-gF0KvcY-1">
          <mxGeometry x="450" y="20" width="150" height="705" as="geometry" />
        </mxCell>
        <mxCell id="6Izva4F67837-gF0KvcY-23" value="触发规则调用WebHook" style="rounded=1;whiteSpace=wrap;html=1;" vertex="1" parent="6Izva4F67837-gF0KvcY-4">
          <mxGeometry x="15" y="205" width="120" height="60" as="geometry" />
        </mxCell>
        <mxCell id="6Izva4F67837-gF0KvcY-14" value="User" style="swimlane;startSize=20;html=1;" vertex="1" parent="6Izva4F67837-gF0KvcY-1">
          <mxGeometry x="600" y="20" width="150" height="705" as="geometry" />
        </mxCell>
        <mxCell id="6Izva4F67837-gF0KvcY-27" value="接收告警通知" style="rounded=1;whiteSpace=wrap;html=1;" vertex="1" parent="6Izva4F67837-gF0KvcY-14">
          <mxGeometry x="15" y="485" width="120" height="60" as="geometry" />
        </mxCell>
        <mxCell id="6Izva4F67837-gF0KvcY-19" value="" style="edgeStyle=orthogonalEdgeStyle;rounded=0;orthogonalLoop=1;jettySize=auto;html=1;" edge="1" parent="6Izva4F67837-gF0KvcY-1" source="6Izva4F67837-gF0KvcY-16" target="6Izva4F67837-gF0KvcY-18">
          <mxGeometry relative="1" as="geometry" />
        </mxCell>
        <mxCell id="6Izva4F67837-gF0KvcY-22" value="" style="edgeStyle=orthogonalEdgeStyle;rounded=0;orthogonalLoop=1;jettySize=auto;html=1;" edge="1" parent="6Izva4F67837-gF0KvcY-1" source="6Izva4F67837-gF0KvcY-18" target="6Izva4F67837-gF0KvcY-21">
          <mxGeometry relative="1" as="geometry" />
        </mxCell>
        <mxCell id="6Izva4F67837-gF0KvcY-24" value="" style="edgeStyle=orthogonalEdgeStyle;rounded=0;orthogonalLoop=1;jettySize=auto;html=1;" edge="1" parent="6Izva4F67837-gF0KvcY-1" source="6Izva4F67837-gF0KvcY-21" target="6Izva4F67837-gF0KvcY-23">
          <mxGeometry relative="1" as="geometry" />
        </mxCell>
        <mxCell id="6Izva4F67837-gF0KvcY-26" value="" style="edgeStyle=orthogonalEdgeStyle;rounded=0;orthogonalLoop=1;jettySize=auto;html=1;" edge="1" parent="6Izva4F67837-gF0KvcY-1" source="6Izva4F67837-gF0KvcY-23" target="6Izva4F67837-gF0KvcY-25">
          <mxGeometry relative="1" as="geometry">
            <Array as="points">
              <mxPoint x="525" y="405" />
            </Array>
          </mxGeometry>
        </mxCell>
        <mxCell id="6Izva4F67837-gF0KvcY-28" value="" style="edgeStyle=orthogonalEdgeStyle;rounded=0;orthogonalLoop=1;jettySize=auto;html=1;" edge="1" parent="6Izva4F67837-gF0KvcY-1" source="6Izva4F67837-gF0KvcY-25" target="6Izva4F67837-gF0KvcY-27">
          <mxGeometry relative="1" as="geometry">
            <Array as="points">
              <mxPoint x="75" y="535" />
            </Array>
          </mxGeometry>
        </mxCell>
        <mxCell id="6Izva4F67837-gF0KvcY-31" value="结束" style="ellipse;whiteSpace=wrap;html=1;" vertex="1" parent="1">
          <mxGeometry x="725" y="740" width="120" height="80" as="geometry" />
        </mxCell>
        <mxCell id="6Izva4F67837-gF0KvcY-32" style="edgeStyle=orthogonalEdgeStyle;rounded=0;orthogonalLoop=1;jettySize=auto;html=1;exitX=0.5;exitY=1;exitDx=0;exitDy=0;entryX=0.5;entryY=0;entryDx=0;entryDy=0;" edge="1" parent="1" source="6Izva4F67837-gF0KvcY-27" target="6Izva4F67837-gF0KvcY-31">
          <mxGeometry relative="1" as="geometry" />
        </mxCell>
      </root>
    </mxGraphModel>
  </diagram>
</mxfile>
